HIERARCHY
ROOT hip
{
	OFFSET 0.000000 0.000000 0.000000 
	CHANNELS 6 Xposition Yposition Zposition Xrotation Zrotation Yrotation
	JOINT abdomen
	{
		OFFSET 0.000000 3.402643 0.000000 
		CHANNELS 3 Xrotation Zrotation Yrotation
		JOINT chest
		{
			OFFSET 0.000000 8.438565 -0.680529 
			CHANNELS 3 Xrotation Zrotation Yrotation
			JOINT neck
			{
				OFFSET 0.000000 10.207942 -0.272212 
				CHANNELS 3 Xrotation Zrotation Yrotation
				JOINT head
				{
					OFFSET 0.000000 3.130431 0.000000 
					CHANNELS 3 Xrotation Zrotation Yrotation
					End Site
					{
						OFFSET 0.000000 3.130435 0.000000 
					}
				}
			}
			JOINT lCollar
			{
				OFFSET 3.470700 6.669187 -0.816635 
				CHANNELS 3 Yrotation Zrotation Xrotation
				JOINT lShldr
				{
					OFFSET 3.198488 0.000000 0.000000 
					CHANNELS 3 Zrotation Yrotation Xrotation
					JOINT lForeArm
					{
						OFFSET 10.139888 0.000000 0.000000 
						CHANNELS 3 Yrotation Zrotation Xrotation
						JOINT lHand
						{
							OFFSET 8.370511 0.000000 0.000000 
							CHANNELS 3 Zrotation Yrotation Xrotation
							End Site
							{
								OFFSET 4.083176 0.000000 0.000000 
							}
						}
					}
				}
			}
			JOINT rCollar
			{
				OFFSET -3.470700 6.669187 -0.816635 
				CHANNELS 3 Yrotation Zrotation Xrotation
				JOINT rShldr
				{
					OFFSET -3.198488 0.000000 0.000000 
					CHANNELS 3 Zrotation Yrotation Xrotation
					JOINT rForeArm
					{
						OFFSET -10.139888 0.000000 0.000000 
						CHANNELS 3 Yrotation Zrotation Xrotation
						JOINT rHand
						{
							OFFSET -8.370511 0.000000 0.000000 
							CHANNELS 3 Zrotation Yrotation Xrotation
							End Site
							{
								OFFSET -4.083176 0.000000 0.000000 
							}
						}
					}
				}
			}
		}
	}
	JOINT lThigh
	{
		OFFSET 5.308129 -1.633274 1.361059 
		CHANNELS 3 Xrotation Zrotation Yrotation
		JOINT lShin
		{
			OFFSET -2.041588 -20.007561 0.000000 
			CHANNELS 3 Xrotation Zrotation Yrotation
			JOINT lFoot
			{
				OFFSET 0.000000 -19.190928 -1.224953 
				CHANNELS 3 Xrotation Yrotation Zrotation
				End Site
				{
					OFFSET 0.000000 -2.449906 4.627600 
				}
			}
		}
	}
	JOINT rThigh
	{
		OFFSET -5.308129 -1.633274 1.361059 
		CHANNELS 3 Xrotation Zrotation Yrotation
		JOINT rShin
		{
			OFFSET 2.041588 -20.007561 0.000000 
			CHANNELS 3 Xrotation Zrotation Yrotation
			JOINT rFoot
			{
				OFFSET 0.000000 -19.190928 -1.224953 
				CHANNELS 3 Xrotation Yrotation Zrotation
				End Site
				{
					OFFSET 0.000000 -2.449906 4.627600 
				}
			}
		}
	}
}
MOTION
Frames: 11
Frame Time: 0.033333
-47.963871 49.935707 10.600556 -0.048941 -4.176701 88.664139 0.000000 0.000000 0.000000 -4.847324 -0.390576 -0.908249 1.607352 -0.956453 1.992399 6.981995 1.639594 2.032095 -6.920385 -4.876551 -4.118225 -48.613087 6.055903 -36.756748 -86.308228 -2.351007 10.663283 0.029020 5.226568 -3.527562 6.760149 7.581187 -4.320439 33.280998 -9.059616 -39.253700 90.916481 10.103771 -21.304802 -14.121516 -8.239993 -2.976768 -7.278275 5.852981 4.271353 19.554260 -2.156106 20.589567 -13.694218 1.073492 -8.814825 1.326139 -8.655478 -8.246109 10.804196 2.152298 -20.790733 -11.197662 -1.235576 12.107799 
-47.927692 49.926311 10.544000 -0.039548 -4.120822 88.927689 0.000000 0.000000 0.000000 -4.825637 -0.576111 -0.830134 1.761261 -0.799989 2.548989 6.234251 1.639039 2.520735 -6.843667 -4.923427 -4.099552 -49.227989 6.088492 -36.636635 -87.491150 -2.508528 10.739688 -0.191932 4.870456 -3.518674 7.345823 8.236773 -4.371950 32.418209 -10.586150 -40.591766 92.554642 11.186905 -26.537127 -16.825323 -6.215847 -3.133852 -7.272867 5.749698 4.173559 19.635521 -2.092745 20.478130 -13.754602 1.061444 -8.789639 1.542098 -8.719839 -8.302468 10.695786 2.083178 -20.939491 -11.174951 -1.237327 12.247121 
-47.905823 49.923840 10.469051 0.018647 -4.370756 89.255409 0.000000 0.000000 0.000000 -5.009325 -0.712818 -0.820492 1.722709 -0.867982 2.959236 5.525613 1.677477 2.940765 -6.697036 -4.847026 -4.265960 -50.172237 6.105501 -36.300571 -88.396286 -2.604903 10.627545 -0.658136 5.145216 -3.531003 7.556242 8.102896 -4.534411 33.724152 -12.388664 -43.774097 93.557709 12.437130 -23.971455 -14.487444 -7.068467 -3.092048 -7.557543 5.604582 4.071583 19.653200 -2.121218 20.267309 -13.829797 1.062444 -8.637410 1.491815 -8.887902 -8.522986 10.545080 2.243273 -21.160250 -11.117673 -1.249908 12.304255 
-47.888878 49.907257 10.383656 0.082858 -4.539057 89.387352 0.000000 0.000000 0.000000 -5.127531 -0.781196 -0.673899 1.615768 -1.247827 3.379593 5.326156 2.037979 3.127189 -6.683063 -5.020190 -4.394418 -50.983494 6.312689 -35.595737 -89.053658 -2.590394 10.322166 -0.266156 5.276838 -3.524958 7.964969 7.859933 -4.645190 35.759155 -13.915092 -46.199089 94.838455 13.484163 -22.849600 -13.911269 -6.925601 -3.121128 -7.798379 5.436038 3.988590 19.821266 -2.200286 20.264002 -13.955423 1.034784 -8.534051 1.394361 -9.113318 -8.668323 10.642640 2.301798 -20.944542 -11.218107 -1.268037 12.395874 
-47.857594 49.897175 10.273746 0.045904 -4.371333 89.820511 0.000000 0.000000 0.000000 -4.980214 -0.839784 -0.683807 1.664638 -1.159774 3.633451 4.789849 1.510839 3.507214 -6.699379 -5.257076 -4.279280 -51.919144 6.551043 -34.125870 -89.596825 -2.364022 10.868909 0.142866 5.292249 -3.516398 7.647618 7.973145 -4.493638 37.602055 -14.714210 -47.109470 95.491257 14.044842 -24.215723 -13.949408 -6.361232 -3.191000 -7.776536 5.326736 3.909850 20.022717 -2.117057 19.894243 -14.107244 1.065665 -8.433359 1.931309 -9.152884 -8.816911 10.226641 2.306998 -21.183619 -11.071987 -1.263337 12.534392 
-47.860085 49.907024 10.154734 -0.014329 -3.982216 90.130936 0.000000 0.000000 0.000000 -4.645842 -0.917885 -0.771698 1.999766 -1.403363 3.672925 4.425389 2.144592 3.430447 -6.692464 -5.184273 -3.966409 -53.309448 6.607089 -32.677799 -89.890022 -2.128090 10.999903 0.187893 5.344009 -3.521170 7.722565 7.877539 -4.187180 40.460922 -15.209236 -47.619392 95.394577 14.172065 -24.234674 -13.645560 -5.530715 -3.276782 -7.397048 5.200873 3.930546 19.977352 -2.122295 19.535379 -14.166898 1.008667 -8.158008 2.616560 -9.258362 -9.082511 9.741111 2.366014 -21.394260 -10.742167 -1.224463 12.564629 
-47.808289 49.925121 10.022408 -0.152806 -3.922246 90.754578 0.000000 0.000000 0.000000 -4.614819 -0.908094 -0.888870 1.720616 -1.354694 3.633642 4.979575 1.871391 3.556616 -6.953470 -5.420769 -3.966259 -54.439655 6.904865 -30.311792 -90.191589 -1.777155 11.535647 0.632495 5.723920 -3.513026 7.628353 7.965102 -4.170266 42.672012 -15.729103 -46.568855 94.516907 13.771339 -25.337524 -14.977964 -6.331522 -3.170985 -7.388958 5.143679 3.832524 19.924809 -2.042403 19.238972 -14.214361 1.004819 -7.963723 3.678222 -9.027607 -9.173807 8.189548 2.378011 -22.025274 -10.072747 -1.150994 12.545889 
-47.815022 49.912079 9.872480 -0.193249 -4.035769 91.049530 0.000000 0.000000 0.000000 -4.721869 -0.986222 -0.840056 1.646959 -1.617940 3.575549 5.034018 2.261797 3.332877 -6.949017 -5.614385 -4.074506 -55.691898 6.931966 -26.981140 -90.728462 -1.285932 11.758472 0.744863 5.799436 -3.509724 7.797307 7.697055 -4.253538 45.837112 -16.082994 -44.595406 93.245193 12.859362 -25.831738 -16.312996 -5.704424 -3.211339 -7.662870 4.919547 3.692942 20.132097 -1.971450 19.072695 -14.350593 0.974641 -7.839727 3.785652 -9.086857 -9.151579 7.895980 2.250270 -22.372852 -9.879944 -1.162418 12.771483 
-47.833347 49.883419 9.713017 -0.322068 -4.234337 91.314705 0.000000 0.000000 0.000000 -4.829458 -1.035058 -0.791239 1.395764 -1.725715 3.263179 5.355697 2.594349 2.893848 -6.928895 -5.732004 -4.173221 -56.467728 6.792298 -22.452593 -91.620331 -0.597486 12.507438 0.228833 6.080485 -3.529456 8.216866 7.262715 -4.332865 49.402840 -16.523302 -42.193016 92.178772 11.806761 -26.803349 -17.656046 -5.523127 -3.211250 -8.164229 4.922093 3.637330 20.687557 -2.080289 18.728548 -14.707124 0.967896 -7.586408 3.531880 -9.408119 -9.595346 8.093429 2.633095 -22.015841 -9.915174 -1.136705 12.763381 
-47.818665 49.862610 9.539824 -0.375049 -3.989989 91.514961 0.000000 0.000000 0.000000 -4.609909 -1.152307 -0.459088 1.432557 -1.823910 2.852914 5.056943 2.478611 2.218945 -6.717234 -5.650288 -3.988517 -57.507332 5.822004 -16.648653 -92.589417 0.244957 12.872543 -0.216715 6.630198 -3.555710 8.807523 7.740212 -4.174891 52.484787 -17.470478 -41.043148 91.103905 11.030540 -23.900627 -17.936218 -5.297320 -3.232677 -8.079267 4.858597 3.723765 21.001266 -2.167038 18.441164 -14.980326 0.962386 -7.374607 3.814553 -9.494503 -9.648419 8.033749 2.465945 -22.312675 -9.669660 -1.149675 13.093755 
-47.787575 49.856251 9.333007 -0.575733 -3.485629 91.910561 0.000000 0.000000 0.000000 -4.231023 -1.064428 -0.390739 1.532297 -1.883108 2.403613 5.194012 2.196242 1.749382 -6.729084 -5.774264 -3.658158 -58.011967 4.768720 -10.341893 -93.790268 1.300622 14.337381 -1.545613 6.539114 -3.581828 8.196925 7.766627 -3.800571 54.863258 -17.032677 -35.486725 89.569420 9.072723 -23.473541 -19.850445 -3.493432 -3.502089 -7.731141 4.724414 3.675735 21.263884 -2.023809 18.245399 -15.211637 0.950247 -7.176166 5.064679 -9.312278 -9.718239 6.754317 2.309264 -22.789907 -8.970731 -1.089965 13.216105 
